<?xml version="1.0" encoding="utf-8"?>
<!-- Generator: Adobe Illustrator 25.4.1, SVG Export Plug-In . SVG Version: 6.00 Build 0)  -->
<svg version="1.1" id="图层_1" xmlns="http://www.w3.org/2000/svg" xmlns:xlink="http://www.w3.org/1999/xlink" x="0px" y="0px"
	 viewBox="0 0 100 40" style="enable-background:new 0 0 100 40;" xml:space="preserve">
<style type="text/css">
	.st0{fill:#F7F8F8;}
	.st1{fill:none;}
</style>
<g>
	<path class="st0" d="M3.51,15.26l0.01-0.05c0.1-0.03,0.21-0.05,0.35-0.06c0.07,0,0.13-0.02,0.17-0.06
		c0.04-0.03,0.09-0.11,0.15-0.23c0.13-0.03,0.33-0.09,0.61-0.19l0.1-0.24c0.14-0.04,0.23-0.06,0.29-0.08
		c0.04-0.02,0.15-0.09,0.34-0.22c0.2-0.09,0.31-0.14,0.33-0.15c0.04-0.03,0.08-0.08,0.13-0.16l0.28,0.04
		c0.07-0.06,0.11-0.11,0.13-0.15c0.03-0.06,0.07-0.13,0.11-0.2h0.25c0.06-0.12,0.1-0.19,0.13-0.21l0.24-0.11l0.48-0.27l0.26-0.09
		l0.17-0.12c0.16-0.09,0.25-0.15,0.28-0.17c0.03-0.02,0.08-0.09,0.16-0.19l0.29,0.04l0.15-0.35l0.43,0.04
		c0.07-0.12,0.13-0.2,0.17-0.25c0.09-0.09,0.25-0.17,0.5-0.26c-0.04,0.09-0.06,0.14-0.06,0.15L9.8,12.36c0,0.03-0.02,0.06-0.06,0.09
		c-0.03,0.04-0.15,0.09-0.37,0.15c-0.11,0.04-0.22,0.1-0.32,0.21c-0.1,0.09-0.18,0.17-0.23,0.22L8.56,13L8.4,13.17L8.2,13.2
		l-0.14,0.21l-0.21,0.04l-0.13,0.17H7.48c-0.08,0.07-0.19,0.14-0.33,0.22C7.11,13.86,7.06,13.92,7,14.02L6.77,14
		c-0.08,0.16-0.14,0.26-0.19,0.29c-0.03,0.01-0.15,0.02-0.36,0.03c-0.07,0.04-0.16,0.08-0.26,0.13c-0.09,0.05-0.13,0.07-0.14,0.08
		c0,0-0.07,0.08-0.19,0.22c-0.04,0.06-0.13,0.1-0.27,0.14C5.27,15,5.2,15.06,5.14,15.06c0,0-0.01,0-0.02,0
		c-0.03-0.01-0.08-0.02-0.15-0.02l-0.4,0.36c0.12,0.05,0.25,0.08,0.39,0.09c0.03,0.04,0.09,0.14,0.17,0.31l0.24,0.01
		c0.04,0.05,0.07,0.1,0.1,0.15c0.05,0.1,0.13,0.15,0.24,0.15l0.16-0.01h0.01c0.06,0,0.09,0.02,0.1,0.05
		C5.99,16.37,6,16.5,6.01,16.54l0.49-0.08l0.19,0.44l0.28-0.02L7,17.1l0.27-0.03c0.07,0.09,0.19,0.19,0.36,0.3
		c0.04,0.02,0.07,0.1,0.12,0.22c0.08,0.02,0.16,0.03,0.25,0.03c0.09,0.02,0.16,0.1,0.19,0.24c0.08,0.02,0.13,0.03,0.15,0.03
		c0.11,0.02,0.19,0.04,0.23,0.06c-0.01,0.11,0,0.19,0.02,0.23l0.17,0.07c0.01,0.13,0.02,0.21,0.01,0.23c0,0.01-0.05,0.1-0.14,0.26
		c-0.01,0.04-0.01,0.06-0.01,0.06c0.03,0.06,0.06,0.12,0.07,0.18c-0.18-0.07-0.29-0.14-0.33-0.19c-0.04-0.04-0.07-0.11-0.09-0.21
		c-0.03,0-0.06-0.01-0.09-0.01c-0.02,0-0.03,0-0.05,0.01c-0.03,0-0.05,0.01-0.06,0.01c-0.02,0-0.08-0.09-0.19-0.26
		c-0.02-0.03-0.16-0.08-0.4-0.15c-0.05-0.01-0.11-0.11-0.18-0.3H7.25c-0.08,0-0.13-0.01-0.17-0.03c-0.04-0.02-0.08-0.07-0.11-0.16
		H6.76l-0.08-0.19c-0.13-0.05-0.2-0.09-0.23-0.14c-0.04-0.09-0.08-0.16-0.11-0.2l-0.32,0.06L5.97,17c-0.1-0.02-0.17-0.03-0.2-0.04
		c-0.2-0.03-0.31-0.07-0.33-0.11c-0.02-0.03-0.02-0.12-0.02-0.26c-0.07,0-0.13,0.01-0.18,0.01c-0.08,0-0.13-0.02-0.17-0.05
		c-0.01,0-0.06-0.1-0.17-0.29c-0.03-0.03-0.14-0.05-0.32-0.06l-0.04-0.22c-0.11-0.02-0.19-0.04-0.24-0.06
		c-0.02-0.01-0.1-0.06-0.24-0.16L3.9,15.67l-0.19-0.25C3.7,15.39,3.63,15.34,3.51,15.26z"/>
	<path class="st0" d="M10.39,15.26l0.01-0.05c0.1-0.03,0.21-0.05,0.35-0.06c0.07,0,0.13-0.02,0.17-0.06
		c0.04-0.03,0.09-0.11,0.15-0.23c0.13-0.03,0.33-0.09,0.61-0.19l0.1-0.24c0.14-0.04,0.23-0.06,0.29-0.08
		c0.04-0.02,0.15-0.09,0.34-0.22c0.2-0.09,0.31-0.14,0.33-0.15c0.04-0.03,0.08-0.08,0.13-0.16l0.28,0.04
		c0.07-0.06,0.11-0.11,0.13-0.15c0.03-0.06,0.07-0.13,0.11-0.2h0.25c0.06-0.12,0.1-0.19,0.13-0.21L14,13.18l0.48-0.27l0.26-0.09
		l0.17-0.12c0.16-0.09,0.25-0.15,0.28-0.17c0.03-0.02,0.08-0.09,0.16-0.19l0.29,0.04l0.15-0.35l0.43,0.04
		c0.07-0.12,0.13-0.2,0.17-0.25c0.09-0.09,0.25-0.17,0.5-0.26c-0.04,0.09-0.06,0.14-0.06,0.15l-0.13,0.65
		c0,0.03-0.02,0.06-0.06,0.09c-0.03,0.04-0.15,0.09-0.37,0.15c-0.11,0.04-0.22,0.1-0.32,0.21c-0.1,0.09-0.18,0.17-0.23,0.22
		L15.45,13l-0.17,0.18l-0.2,0.03l-0.14,0.21l-0.21,0.04l-0.13,0.17h-0.24c-0.08,0.07-0.19,0.14-0.33,0.22
		c-0.03,0.02-0.08,0.08-0.15,0.18L13.66,14c-0.08,0.16-0.14,0.26-0.19,0.29c-0.03,0.01-0.15,0.02-0.36,0.03
		c-0.07,0.04-0.16,0.08-0.26,0.13c-0.09,0.05-0.13,0.07-0.14,0.08c0,0-0.07,0.08-0.19,0.22c-0.04,0.06-0.13,0.1-0.27,0.14
		c-0.08,0.11-0.15,0.16-0.21,0.16c0,0-0.01,0-0.02,0c-0.03-0.01-0.08-0.02-0.15-0.02l-0.4,0.36c0.12,0.05,0.25,0.08,0.39,0.09
		c0.03,0.04,0.09,0.14,0.17,0.31l0.24,0.01c0.04,0.05,0.07,0.1,0.1,0.15c0.05,0.1,0.13,0.15,0.24,0.15l0.16-0.01h0.01
		c0.06,0,0.09,0.02,0.1,0.05c0.01,0.22,0.02,0.34,0.03,0.38l0.49-0.08l0.19,0.44l0.28-0.02l0.04,0.23l0.27-0.03
		c0.07,0.09,0.19,0.19,0.36,0.3c0.04,0.02,0.07,0.1,0.12,0.22c0.08,0.02,0.16,0.03,0.25,0.03c0.09,0.02,0.16,0.1,0.19,0.24
		c0.08,0.02,0.13,0.03,0.15,0.03c0.11,0.02,0.19,0.04,0.23,0.06c-0.01,0.11,0,0.19,0.02,0.23l0.17,0.07
		c0.01,0.13,0.02,0.21,0.01,0.23c0,0.01-0.05,0.1-0.14,0.26c-0.01,0.04-0.01,0.06-0.01,0.06c0.03,0.06,0.06,0.12,0.07,0.18
		c-0.18-0.07-0.29-0.14-0.33-0.19c-0.04-0.04-0.07-0.11-0.09-0.21c-0.03,0-0.06-0.01-0.09-0.01c-0.02,0-0.03,0-0.05,0.01
		c-0.03,0-0.05,0.01-0.06,0.01c-0.02,0-0.08-0.09-0.19-0.26c-0.02-0.03-0.16-0.08-0.4-0.15c-0.05-0.01-0.11-0.11-0.18-0.3h-0.06
		c-0.08,0-0.13-0.01-0.17-0.03c-0.04-0.02-0.08-0.07-0.11-0.16h-0.22l-0.08-0.19c-0.13-0.05-0.2-0.09-0.23-0.14
		c-0.04-0.09-0.08-0.16-0.11-0.2l-0.32,0.06L12.85,17c-0.1-0.02-0.17-0.03-0.2-0.04c-0.2-0.03-0.31-0.07-0.33-0.11
		c-0.02-0.03-0.02-0.12-0.02-0.26c-0.07,0-0.13,0.01-0.18,0.01c-0.08,0-0.13-0.02-0.17-0.05c-0.01,0-0.06-0.1-0.17-0.29
		c-0.03-0.03-0.14-0.05-0.32-0.06l-0.04-0.22c-0.11-0.02-0.19-0.04-0.24-0.06c-0.02-0.01-0.1-0.06-0.24-0.16l-0.17-0.09l-0.19-0.25
		C10.59,15.39,10.52,15.34,10.39,15.26z"/>
	<path class="st0" d="M16.76,20.25c0.04-0.05,0.1-0.1,0.17-0.15c0.06-0.04,0.17-0.11,0.31-0.22c0-0.04,0-0.07,0.01-0.1
		c0-0.02,0.02-0.04,0.05-0.06c0.16-0.18,0.32-0.35,0.49-0.53c0.05-0.06,0.14-0.15,0.29-0.26l-0.47-0.12l0.56-0.32l-0.41-0.48
		l0.05-0.2l0.04-0.17c0.08-0.15,0.13-0.25,0.14-0.3l0-0.01l0.03-0.18c0.01-0.06,0.06-0.11,0.14-0.15l0.06-0.04l0.1,0.02l0.02-0.01
		c0.02-0.02,0.02-0.04,0.03-0.06c0.01-0.03-0.03-0.09-0.11-0.17l0.03-0.16l-0.18,0.04l-0.04-0.05c0.04-0.09,0.07-0.15,0.07-0.18
		l0.03-0.27l0.12-0.52c0-0.02,0-0.12,0-0.29c0.04-0.09,0.07-0.18,0.09-0.25h0.08c0.02-0.1,0.06-0.2,0.12-0.3
		c-0.13-0.02-0.18-0.06-0.17-0.11c0-0.02,0.02-0.06,0.05-0.12c0.02-0.04,0.03-0.12,0.05-0.25c0.01-0.05,0.02-0.11,0.03-0.18
		c0.01-0.06,0.03-0.11,0.03-0.14c0.01-0.04,0.01-0.08,0.01-0.11c-0.01-0.04-0.01-0.07-0.01-0.09c0-0.02,0.02-0.04,0.05-0.08h0.11
		l0.04-0.09l-0.09-0.02l0.01-0.04c0.01-0.05,0.04-0.1,0.07-0.14l0.09-0.11c0-0.01,0.03-0.02,0.08-0.03l0.03-0.08l-0.12-0.06
		l0.08-0.16c-0.06,0.03-0.11,0.05-0.16,0.05c-0.05,0-0.08-0.04-0.06-0.12c0-0.01,0.02-0.09,0.07-0.25l0-0.01l0.05-0.47l0.04-0.25
		c0.01-0.05,0.02-0.1,0.02-0.17c0.01-0.04,0.01-0.07,0.01-0.08c0.02-0.09,0.05-0.2,0.11-0.33l-0.06-0.08l0.09-0.51
		c0.02-0.01,0.04-0.01,0.04-0.02c0-0.01,0.01-0.05,0.03-0.14c-0.04-0.1-0.05-0.17-0.05-0.21c0-0.02,0.01-0.04,0.01-0.07
		c-0.04-0.07-0.06-0.11-0.06-0.13l0.03-0.23c0.01-0.11,0.01-0.19,0.02-0.22c0-0.05-0.02-0.11-0.06-0.19l-0.1-0.02L18.9,9.35
		c0.09-0.04,0.16-0.07,0.19-0.09c0.1-0.05,0.2-0.07,0.3-0.08l0.11-0.05l0.12-0.05l0.11-0.09l0.08-0.03
		c0.21-0.09,0.37-0.13,0.47-0.13c0.09,0,0.12,0.04,0.11,0.11l-0.03,0.18l0.01,0.15c-0.06,0.07-0.1,0.13-0.11,0.18
		c-0.01,0.04-0.01,0.1-0.02,0.17c-0.01,0.07-0.02,0.17-0.04,0.31h0.02L20.2,9.96c-0.06,0.02-0.1,0.02-0.13,0.02
		c-0.02,0-0.06,0-0.1-0.01L19.95,10c-0.02,0.07-0.08,0.13-0.17,0.17l0.09,0.2l0.15-0.02l0.06,0.15h0.06l0.02,0.01
		c-0.07,0.09-0.18,0.2-0.33,0.33l-0.14,0.39l-0.33,0.3l0.04,0.23l-0.08,0.77c0.01,0.03,0.07,0.07,0.18,0.12
		c0.1,0.05,0.15,0.1,0.14,0.15l-0.01,0.01c-0.01,0.02-0.02,0.05-0.05,0.09l-0.09,0.02c0.08,0.08,0.09,0.23,0.06,0.43
		c-0.01,0.08-0.09,0.15-0.22,0.22c0.03,0.09,0.05,0.14,0.06,0.17c0.04,0.11,0.05,0.2,0.04,0.26c0,0-0.03,0.07-0.09,0.19l0,0.05
		l0,0.01c-0.01,0.01-0.01,0.05-0.02,0.1c-0.05,0.33-0.1,0.55-0.12,0.66c-0.01,0.04-0.01,0.08-0.02,0.14
		c-0.02,0.11-0.04,0.21-0.05,0.31c0,0.04-0.01,0.07-0.01,0.09c0,0.02-0.01,0.04-0.03,0.07l0-0.02l-0.14,0.09
		c-0.01,0.12,0.03,0.22,0.1,0.3l-0.03,0.06l-0.12,0.83l-0.01,0.09c-0.01,0.04-0.01,0.08-0.02,0.11c-0.01,0.05-0.06,0.2-0.17,0.46
		l-0.07,0.31l-0.07,0.09c-0.01,0.01-0.02,0.04-0.03,0.11c-0.04,0.11-0.07,0.2-0.09,0.27l0.14-0.02c0.02,0.11,0.03,0.18,0.02,0.19
		l-0.17,0.92c-0.01,0.08,0.02,0.13,0.1,0.16c0.06,0.02,0.12,0.04,0.16,0.09c0.04,0,0.07-0.01,0.1-0.01s0.09,0.01,0.18,0.04
		l0.22,0.02l0.38,0.09h0.35l0.14,0.26l0.53-0.23l0.2,0.03l0.16,0.02l0.15,0.05c0,0,0.08-0.01,0.22-0.03c0.02,0,0.05-0.01,0.07-0.01
		c0.03,0,0.12,0.02,0.25,0.05c0.19-0.03,0.3-0.05,0.31-0.05c0.05,0,0.15,0.01,0.29,0.02c0.05,0,0.1,0.01,0.14,0.01
		c0.05,0,0.14-0.01,0.27-0.04l0.29-0.02c0.19-0.03,0.39-0.06,0.6-0.08c0.09,0,0.15-0.01,0.18-0.03c0.06-0.02,0.1-0.03,0.13-0.03
		c0.01,0,0.05,0.09,0.12,0.28c0,0,0.01,0.01,0.02,0.01c0.05,0,0.12-0.05,0.19-0.15c0.04-0.05,0.07-0.14,0.09-0.26
		c0.14-0.04,0.23-0.06,0.28-0.08c0.26-0.11,0.42-0.16,0.48-0.16l0.03,0.01c-0.02,0.12-0.05,0.19-0.08,0.22l-0.12,0.12l-0.26,0.3
		c-0.1,0.08-0.17,0.15-0.24,0.22H24.2l-0.09,0.12l-0.32-0.28l-0.84,0.29l-0.04-0.02c-0.06-0.02-0.19-0.03-0.39-0.03H22.5
		c-0.03,0-0.35,0.02-0.97,0.06l-0.38-0.05c-0.14,0.02-0.22,0.04-0.22,0.04c-0.09,0-0.16-0.04-0.22-0.11
		c-0.11-0.12-0.16-0.18-0.17-0.18l-0.65,0.23l-0.14-0.03l-0.14-0.01l-0.14-0.02c-0.26-0.01-0.41-0.02-0.47-0.02l0.07-0.04h-0.25
		l-0.06,0.12c-0.07-0.04-0.11-0.07-0.13-0.09c-0.05-0.04-0.12-0.06-0.19-0.07c-0.14,0.11-0.29,0.16-0.45,0.16
		c-0.09,0-0.2-0.01-0.32-0.04c-0.11,0.07-0.22,0.1-0.33,0.1c-0.03,0-0.1-0.01-0.19-0.04C17,20.31,16.87,20.28,16.76,20.25z"/>
	<path class="st0" d="M26.07,16.76c0.05-0.26,0.09-0.45,0.15-0.56c0.05-0.1,0.13-0.26,0.25-0.46c0.21-0.3,0.33-0.47,0.36-0.5
		c0.03-0.04,0.13-0.1,0.31-0.21c0,0,0.04-0.06,0.12-0.18c0.05-0.06,0.08-0.1,0.11-0.11c0.05-0.04,0.21-0.12,0.49-0.24
		c0.09-0.04,0.2-0.11,0.32-0.22c0.02-0.02,0.27-0.11,0.75-0.28c0.25-0.09,0.6-0.13,1.05-0.13c0.09,0,0.2,0.02,0.34,0.05l0,0.12
		c0.05,0.02,0.09,0.05,0.13,0.08c0.06-0.02,0.12-0.07,0.17-0.15c0.21,0.05,0.38,0.12,0.52,0.23c0.11,0.07,0.17,0.12,0.18,0.14
		c0.01,0.01,0.03,0.08,0.08,0.21c0.06,0.12,0.18,0.18,0.37,0.19c0.07,0.16,0.11,0.27,0.12,0.35s0.01,0.2,0.01,0.38
		c-0.01,0.18-0.02,0.32-0.02,0.42h-0.09l-0.01,0.07l-0.14,0.13c0,0.07,0.05,0.13,0.13,0.19c-0.04,0.17-0.07,0.29-0.1,0.35
		c-0.01,0.03-0.05,0.1-0.12,0.21c-0.2,0.34-0.34,0.56-0.42,0.65c-0.25,0.25-0.47,0.4-0.65,0.46l-0.34,0.16l-0.32,0.14
		c-0.17,0.09-0.27,0.13-0.3,0.14s-0.22,0.02-0.58,0.04l-0.43,0.09h-0.42l-0.19,0.02c-0.33-0.06-0.54-0.09-0.63-0.09
		c-0.04-0.06-0.08-0.1-0.1-0.11c-0.01,0-0.08-0.02-0.22-0.04c-0.08-0.02-0.21-0.1-0.42-0.25c-0.03-0.02-0.1-0.06-0.19-0.12
		c-0.01-0.07-0.02-0.12-0.02-0.15c-0.01-0.04-0.02-0.07-0.03-0.09c0,0-0.04-0.03-0.11-0.08c0,0-0.01-0.02-0.03-0.05
		c-0.06-0.14-0.08-0.27-0.06-0.41c0.01-0.07,0.06-0.13,0.16-0.19c-0.02-0.06-0.08-0.11-0.15-0.15L26.07,16.76z M26.74,16.64
		l-0.01,0.06l0.04,0.05c0.04-0.04,0.09-0.05,0.13-0.06c0.01,0.13,0.02,0.23,0.03,0.3c0.01,0.04,0.08,0.21,0.21,0.51
		c0,0.01,0,0.02,0,0.03c-0.01,0.04-0.04,0.09-0.09,0.17c0.01,0.05,0.05,0.08,0.14,0.09c0.05-0.04,0.08-0.06,0.11-0.06
		c0.02,0,0.18,0.08,0.47,0.25c0.12,0.07,0.26,0.1,0.4,0.1h0.35l0.17,0.04c0.07,0.02,0.13,0.03,0.19,0.03c0.09,0,0.19-0.01,0.31-0.04
		c0.08-0.02,0.19-0.04,0.33-0.07c0.04-0.01,0.19-0.1,0.44-0.25c0.16-0.05,0.25-0.09,0.28-0.11c0.03-0.03,0.13-0.15,0.28-0.35
		l0.2-0.29c0.11-0.09,0.18-0.15,0.2-0.18c0.02-0.03,0.03-0.06,0.04-0.11c-0.05-0.09-0.06-0.16-0.06-0.19l0-0.01l0.04-0.12
		c0.04-0.18,0.09-0.33,0.15-0.44c-0.02-0.07-0.03-0.19-0.05-0.35l-0.04-0.3c0-0.04,0.01-0.12,0.02-0.24l-0.02-0.02h-0.14
		c-0.03-0.08-0.09-0.21-0.2-0.37c-0.06-0.1-0.1-0.15-0.1-0.16c-0.01-0.01-0.04-0.03-0.1-0.06c-0.05-0.02-0.14-0.06-0.27-0.12
		c-0.02-0.14-0.07-0.21-0.15-0.21c-0.02,0-0.09,0.02-0.19,0.06c-0.12-0.03-0.18-0.05-0.2-0.05c-0.2,0-0.34,0-0.4,0.01
		c-0.07,0-0.18,0.05-0.33,0.14l-0.11-0.09c-0.07,0.08-0.13,0.12-0.16,0.14l-0.27,0.13l-0.05,0.05l-0.81,0.59l-0.06,0.04
		c-0.03,0.11-0.05,0.18-0.07,0.21l-0.15,0.21c-0.06,0.11-0.12,0.2-0.19,0.27c0,0.03,0,0.06-0.01,0.08c-0.02,0.09-0.1,0.16-0.24,0.22
		c0,0.01,0.01,0.06,0.02,0.13c0.09,0.07,0.14,0.12,0.13,0.15C26.95,16.51,26.88,16.57,26.74,16.64z"/>
	<path class="st0" d="M33.04,15.97c0.07-0.09,0.19-0.26,0.36-0.52c0.11-0.16,0.18-0.25,0.21-0.26c0.08-0.06,0.16-0.12,0.24-0.18
		l0.16-0.15l0.22-0.16l0.3-0.25l0.16-0.09l0.15-0.1l0.14-0.05l0.19-0.13l0.33-0.11c0.2-0.07,0.33-0.1,0.38-0.11
		c0.1-0.01,0.18-0.02,0.25-0.04c0.06,0.08,0.11,0.12,0.15,0.12c0,0,0.11-0.03,0.31-0.08c0.02,0,0.03-0.01,0.04-0.01
		c0,0,0.09,0.02,0.25,0.06c0.02,0,0.05,0.01,0.1,0.01c0.07,0,0.12,0.01,0.15,0.02c0.19-0.05,0.3-0.08,0.32-0.08
		c0.08,0,0.15,0.03,0.2,0.08c-0.04,0.1-0.08,0.16-0.12,0.19c-0.04,0.04-0.11,0.07-0.21,0.09l-0.06,0.16
		c-0.14,0.06-0.23,0.11-0.27,0.14c-0.06,0.03-0.1,0.05-0.12,0.06l-0.09-0.01c-0.01,0-0.02,0-0.02,0l-0.21,0.01h-0.01l-0.17-0.02
		l-0.14-0.01c-0.12-0.04-0.23-0.07-0.32-0.08c-0.03,0-0.07,0-0.13-0.01c-0.07-0.01-0.13-0.01-0.17-0.01c-0.03,0-0.18,0.02-0.45,0.07
		c-0.14,0.02-0.23,0.03-0.28,0.05c-0.05,0.03-0.15,0.1-0.29,0.23c-0.04,0.04-0.11,0.06-0.22,0.08c-0.03,0.09-0.06,0.15-0.1,0.18
		c-0.04,0.03-0.12,0.05-0.22,0.07c0,0.04,0,0.08-0.01,0.12c0,0.02-0.07,0.1-0.2,0.25c-0.04,0.05-0.1,0.28-0.17,0.71
		c-0.02,0.09,0,0.27,0.05,0.52c-0.08,0.11-0.13,0.19-0.14,0.24c0.02,0.02,0.08,0.04,0.19,0.07c0.13,0.22,0.21,0.38,0.24,0.48
		l0.14,0.02c0.04,0.08,0.08,0.12,0.09,0.14l0.2,0.15l0.14,0.12c0.14,0.06,0.22,0.09,0.26,0.1c0.02,0.01,0.11,0.02,0.27,0.02
		l0.21,0.05l0.2,0.01l0.15,0.02c0.08-0.01,0.22-0.05,0.41-0.13l0.1,0.03c0.06-0.03,0.09-0.05,0.11-0.06
		c0.03-0.02,0.12-0.07,0.25-0.16c0.1-0.01,0.2-0.05,0.29-0.12c0.07-0.06,0.15-0.12,0.23-0.16c0.03-0.02,0.07-0.05,0.12-0.09
		c0.11-0.11,0.19-0.16,0.23-0.16c0.03,0,0.06,0.02,0.08,0.06c-0.07,0.16-0.11,0.3-0.13,0.4c-0.09,0.07-0.17,0.15-0.23,0.23
		c-0.09,0.03-0.22,0.09-0.39,0.19c-0.06,0.01-0.13,0.04-0.18,0.07c-0.08,0.05-0.15,0.08-0.2,0.08l-0.2-0.01h-0.01
		c-0.21,0.04-0.34,0.07-0.38,0.08c-0.01,0-0.07,0.04-0.18,0.1c-0.02,0.01-0.04,0.02-0.06,0.02l-0.59-0.01
		c-0.02,0-0.08,0.01-0.17,0.02c-0.08-0.06-0.16-0.1-0.24-0.11c-0.11-0.01-0.26-0.05-0.46-0.11l-0.14-0.02l-0.15-0.05
		c-0.1-0.02-0.16-0.04-0.19-0.05c-0.02-0.01-0.05-0.03-0.08-0.07c-0.17-0.2-0.25-0.32-0.24-0.35c0.01-0.03,0.02-0.07,0.04-0.11
		l0-0.02l-0.21,0.03l-0.01-0.01c-0.04-0.14-0.08-0.24-0.1-0.27c-0.05-0.09-0.07-0.16-0.06-0.22c0-0.02,0-0.09,0.01-0.21l0-0.02
		l0.06-0.16c-0.1-0.08-0.14-0.13-0.14-0.16c0-0.01,0.1-0.07,0.31-0.18c0.11-0.06,0.18-0.15,0.2-0.26
		C33.4,16.08,33.29,16,33.04,15.97z"/>
	<path class="st0" d="M39.91,9.04C40,9,40.21,8.88,40.53,8.68c0.15-0.04,0.27-0.09,0.36-0.13c0.04,0.01,0.05,0.03,0.05,0.07
		c0,0.01-0.04,0.11-0.13,0.29C40.8,8.91,40.8,8.92,40.8,8.94l-0.01,0.04l-0.01,0.04L40.67,9.8c0,0.03-0.1,0.09-0.32,0.18
		c-0.12,0.05-0.19,0.12-0.21,0.2c-0.02,0.11,0.11,0.28,0.39,0.5l-0.19,0.05l-0.08,0.52c0.03,0.02,0.05,0.03,0.06,0.03
		c0.07,0.02,0.1,0.04,0.1,0.07c-0.01,0.03-0.02,0.09-0.06,0.19c-0.01,0.02-0.01,0.04-0.02,0.06c0,0.02-0.01,0.13-0.02,0.32
		l-0.29,1.63c-0.01,0.06-0.04,0.15-0.09,0.26c-0.01,0.03-0.02,0.06-0.03,0.11c-0.02,0.12,0,0.24,0.08,0.35
		c-0.01,0.04-0.02,0.07-0.03,0.12c-0.02,0.06-0.04,0.11-0.04,0.15l0,0.01c-0.03,0.2-0.05,0.31-0.04,0.35l0.02,0.06l-0.44,0.46
		l0.3,0.22c-0.07,0.21-0.11,0.33-0.11,0.33c-0.01,0.06,0,0.14,0.04,0.24c0.04-0.02,0.15-0.08,0.31-0.21l0.4-0.25l0.65-0.57
		l0.25-0.21l0.17-0.15l0.42-0.36c0.25-0.25,0.4-0.4,0.47-0.45c0.21-0.16,0.38-0.26,0.51-0.32c0.04,0.06,0.11,0.11,0.2,0.15
		c0,0.05,0,0.09-0.01,0.12c-0.02,0.12-0.09,0.23-0.2,0.32c-0.06,0.05-0.16,0.09-0.28,0.11c-0.1,0.11-0.18,0.17-0.23,0.18
		c-0.11,0.01-0.18,0.03-0.23,0.06c0,0.07,0,0.12-0.01,0.17c-0.01,0.07-0.11,0.16-0.29,0.27c-0.08,0.05-0.14,0.09-0.18,0.12
		c-0.07,0.05-0.11,0.09-0.13,0.1c-0.01,0.01-0.06,0.02-0.15,0.02c-0.03,0.08-0.06,0.13-0.09,0.16c-0.01,0.01-0.1,0.06-0.25,0.15
		c-0.28,0.2-0.44,0.32-0.48,0.36c-0.05,0.04-0.09,0.09-0.12,0.16c0.14,0.18,0.25,0.31,0.34,0.37c0.26,0.18,0.39,0.29,0.38,0.31
		c0.01,0.07,0.03,0.13,0.08,0.17c-0.01,0.02-0.01,0.04-0.02,0.05c0,0.03,0.01,0.07,0.05,0.1c0.11,0.11,0.16,0.16,0.17,0.16
		c0.08-0.02,0.15-0.05,0.2-0.08c0.32,0.16,0.54,0.25,0.66,0.29l-0.04,0.14c0.06,0.06,0.12,0.09,0.16,0.09
		c0.02,0,0.07-0.02,0.17-0.05l0.15,0.07c0.07,0.02,0.11,0.05,0.12,0.09c0.06-0.01,0.11-0.02,0.16-0.02c0.01,0,0.02,0,0.04,0.01
		c0.06,0.02,0.1,0.02,0.1,0.02l0.2-0.06l0.02,0.03c0,0.01,0,0.02,0,0.02c0,0.01-0.05,0.1-0.14,0.27c-0.07,0.12-0.18,0.23-0.35,0.3
		c-0.05,0.02-0.14,0.03-0.29,0.03c-0.12,0.05-0.2,0.07-0.21,0.07c-0.03,0-0.11-0.03-0.24-0.08c-0.23-0.06-0.37-0.11-0.43-0.14
		c-0.11-0.06-0.18-0.1-0.21-0.12c0.02-0.05,0.03-0.09,0.04-0.13c0-0.03,0-0.05-0.01-0.07c-0.03-0.05-0.06-0.07-0.11-0.07
		c0,0-0.01,0-0.02,0c-0.14,0.02-0.21,0.03-0.22,0.03c-0.03,0-0.07-0.03-0.11-0.08c-0.07-0.07-0.16-0.15-0.28-0.24l-0.26-0.26
		l-0.18-0.06c-0.1-0.13-0.26-0.3-0.49-0.5c-0.14-0.11-0.22-0.16-0.24-0.16c-0.05,0-0.08,0.03-0.09,0.09c-0.01,0.03,0,0.07,0,0.13
		c0,0.07-0.02,0.26-0.08,0.57l-0.03,0.54l-0.03,0.09c-0.01,0.04-0.02,0.09-0.04,0.16c-0.06,0.04-0.1,0.07-0.11,0.07
		c-0.01,0-0.1,0.02-0.27,0.06c-0.16,0.04-0.32,0.09-0.46,0.16l-0.03-0.16l0-0.01c0.11-0.29,0.19-0.56,0.26-0.82l0.18-0.84l0.12,0.02
		l0.1-0.17c-0.09-0.07-0.13-0.14-0.12-0.19c0.01-0.08,0.08-0.2,0.2-0.35l-0.15-0.09c0.22-0.08,0.34-0.15,0.36-0.22
		c0.01-0.04-0.02-0.08-0.09-0.13c-0.13-0.09-0.19-0.15-0.2-0.18l0.02-0.05c0.01-0.03,0.02-0.07,0.03-0.12l0-0.01
		c0-0.01,0.01-0.08,0.02-0.19c0-0.05,0.01-0.12,0.03-0.21c0.01-0.04,0.02-0.11,0.04-0.2l0.19-0.13l0.01-0.04l-0.14-0.11l0.12-0.98
		l0.01-0.38c0.14-0.1,0.21-0.19,0.23-0.26c0.01-0.05-0.04-0.12-0.14-0.2c0.02-0.05,0.04-0.08,0.04-0.08
		c0.01-0.46,0.01-0.71,0.02-0.74c0.01-0.03,0.06-0.19,0.15-0.45v-0.1c0-0.05-0.03-0.1-0.1-0.14c0.01-0.03,0.02-0.06,0.02-0.08
		c0-0.02,0-0.07-0.02-0.15l0.05-0.2c0.02-0.3,0.03-0.46,0.03-0.48c0.01-0.03,0.02-0.07,0.03-0.13c0.02-0.09,0.04-0.19,0.06-0.3
		c0.02-0.09,0.01-0.15,0-0.18l0-0.01l0.09-0.21l0-0.01C39.89,9.18,39.89,9.12,39.91,9.04z"/>
	<path class="st0" d="M48.21,14.06l0.21-0.12c0.05,0.07,0.08,0.12,0.1,0.13c0.01,0.01,0.04,0.03,0.11,0.06
		c0.04,0.02,0.17,0.18,0.42,0.49c0.08,0.1,0.12,0.19,0.14,0.28c0.02,0.07,0.04,0.16,0.05,0.27c0.01,0.05,0.03,0.12,0.04,0.21
		l-0.05,0.04c-0.04-0.01-0.1-0.03-0.17-0.05l-0.24,0.08l-0.19-0.03l-0.18,0.05c-0.21-0.17-0.32-0.26-0.34-0.26
		c-0.02,0-0.13,0.08-0.32,0.24c-0.24-0.05-0.37-0.07-0.39-0.07c-0.06,0-0.14,0.01-0.23,0.02l-0.03-0.02
		c-0.06,0.01-0.23,0.01-0.51,0.01l-0.22,0.02l-0.27,0.02l-0.28,0.05l-0.24-0.01c-0.24,0.07-0.4,0.11-0.49,0.12
		c-0.04,0.13-0.08,0.23-0.11,0.28c-0.03,0.06-0.09,0.12-0.17,0.19c0.11,0.09,0.17,0.15,0.17,0.18c0,0.25,0,0.42,0.02,0.5l0.09,0.06
		l-0.07,0.22l0.17,0.05c0.01,0.16,0.04,0.27,0.1,0.32c0.05,0.05,0.14,0.09,0.27,0.1c0,0.12,0.02,0.19,0.05,0.22
		c0.03,0.02,0.09,0.04,0.2,0.05l0.07,0.15c0.04-0.01,0.08-0.01,0.11-0.01c0.02,0,0.13,0.05,0.33,0.15c0.04,0.02,0.09,0.04,0.15,0.04
		c0.05,0,0.15-0.02,0.31-0.07l0.38-0.04l0.3-0.08c0.14-0.01,0.23-0.02,0.28-0.04c0.07-0.03,0.2-0.1,0.4-0.2
		c0.19-0.11,0.3-0.18,0.34-0.22c0.08-0.08,0.17-0.18,0.25-0.28c0.04-0.05,0.1-0.07,0.18-0.07c0.04,0,0.08,0.02,0.14,0.08
		c-0.05,0.14-0.09,0.23-0.12,0.28c-0.21,0.28-0.35,0.46-0.41,0.55c-0.05-0.02-0.09-0.03-0.12-0.03c-0.02,0-0.09,0.04-0.21,0.12
		c-0.08,0.05-0.17,0.07-0.28,0.08c-0.25,0.07-0.43,0.1-0.52,0.12c-0.16,0.02-0.27,0.03-0.31,0.04c-0.13,0.04-0.19,0.06-0.2,0.06
		l-0.34-0.05l-0.21,0.04l-0.1,0.01c-0.1,0.01-0.17,0.02-0.22,0.02s-0.19-0.01-0.42-0.04l-0.11-0.01l-0.11-0.08
		c-0.28-0.09-0.43-0.14-0.46-0.16c-0.02-0.01-0.07-0.07-0.17-0.18c-0.01-0.01-0.07-0.05-0.18-0.13c-0.1-0.07-0.15-0.12-0.15-0.15
		l-0.07-0.19c-0.01-0.03-0.06-0.11-0.16-0.22c0.05-0.06,0.08-0.11,0.08-0.14c0-0.01-0.03-0.12-0.09-0.33c-0.02-0.05,0-0.22,0.05-0.5
		c0.02-0.09,0.07-0.23,0.16-0.42c0.07-0.15,0.12-0.24,0.15-0.26l0.24-0.23L45,15.06c0.15-0.12,0.33-0.27,0.53-0.42L46,14.37
		l0.49-0.3l0.16-0.03l0.47-0.14l0.29-0.02c0.25-0.09,0.38-0.13,0.4-0.13C48.04,13.75,48.17,13.86,48.21,14.06z M47.37,14.94
		l0.08,0.12c0.08-0.02,0.13-0.03,0.16-0.03c0.11-0.02,0.22-0.04,0.33-0.08l0.33,0.03c0,0,0.02-0.02,0.04-0.06
		c0.01-0.02,0.01-0.04,0.02-0.06c0.01-0.04-0.01-0.08-0.05-0.13c-0.01-0.01-0.02-0.03-0.05-0.07c-0.07-0.12-0.12-0.18-0.14-0.18
		l-0.18-0.09c-0.02-0.01-0.05-0.06-0.09-0.13c-0.11-0.02-0.3-0.02-0.58-0.02l-0.12-0.01l-0.22,0.12c-0.01,0.01-0.12,0.03-0.34,0.08
		c-0.17,0.06-0.33,0.12-0.46,0.17c-0.03,0.02-0.12,0.09-0.26,0.2c-0.03,0.02-0.08,0.05-0.15,0.1l-0.01,0.04l0.01,0.01l0.4,0.17
		l0.11,0.13l0.28-0.28c0.02-0.02,0.05-0.02,0.07-0.02c0.01,0,0.1,0.03,0.27,0.08c0,0,0.01,0,0.01,0c0.05,0,0.17-0.02,0.34-0.06
		C47.22,14.96,47.29,14.95,47.37,14.94z"/>
	<path class="st0" d="M51.26,15.21l0.2,0.04l0.05-0.04l0-0.3c0.09-0.05,0.14-0.08,0.17-0.09c0.02-0.01,0.15-0.12,0.39-0.33
		l0.18-0.11c0.09-0.07,0.16-0.1,0.2-0.1c0.04,0,0.1,0.01,0.2,0.03l0.07,0.06c0.08-0.06,0.18-0.1,0.29-0.13l0.03-0.15
		c0.04-0.03,0.13-0.07,0.29-0.12l0.29-0.09l0.2-0.02c0.1-0.03,0.16-0.05,0.17-0.05c0.03,0,0.07,0.02,0.13,0.06
		c0.1,0.08,0.17,0.13,0.2,0.15l0.14-0.15c0.11,0.04,0.19,0.06,0.22,0.06c0.25,0.04,0.38,0.07,0.4,0.08l0.12,0.09
		c0.01,0.01,0.03,0.02,0.06,0.02c0.06,0,0.14-0.03,0.23-0.1c-0.04-0.07-0.06-0.11-0.07-0.13l0.03-0.36l-0.01-0.12
		c0.27-0.16,0.4-0.26,0.41-0.28c0-0.03-0.05-0.12-0.17-0.26c-0.07-0.1-0.09-0.27-0.05-0.5l0.16-0.08c-0.03-0.05-0.04-0.13-0.03-0.22
		c-0.03-0.18-0.04-0.3-0.03-0.37l0.01-0.16c0.02-0.12,0.05-0.27,0.09-0.45c0.01-0.06,0.04-0.16,0.1-0.28l-0.01-0.33
		c0-0.02,0.02-0.06,0.05-0.11l0.12-0.06c-0.02-0.07-0.04-0.1-0.05-0.09c-0.01-0.02-0.06-0.03-0.15-0.03l-0.03-0.02l-0.02-0.01
		l0.53-0.31l-0.1-0.15l0.01-0.28c0-0.07-0.05-0.12-0.17-0.16c-0.18-0.07-0.26-0.11-0.26-0.14c0-0.02,0.03-0.06,0.08-0.09
		c0.04-0.03,0.19-0.07,0.45-0.12c0.09-0.1,0.29-0.18,0.6-0.22c0.02,0.06,0.02,0.14,0,0.27L57,9.06l0,0.01c0,0-0.03,0.09-0.09,0.26
		l-0.03,0.17l-0.03,0.1L56.8,9.84l-0.03,0.17l-0.04,0.25c0,0.03-0.02,0.07-0.04,0.12c-0.05,0.11-0.08,0.17-0.08,0.18l-0.05,0.43
		l-0.16,0.22c0.01,0.13,0.04,0.24,0.09,0.35l-0.09,0.22l-0.01,0.17c-0.04,0.09-0.07,0.14-0.07,0.16c-0.01,0.07-0.01,0.15,0,0.26
		c0,0.04,0,0.08-0.01,0.11c0,0.03-0.02,0.06-0.05,0.1l-0.13,0.02c-0.06,0.09-0.09,0.16-0.1,0.2c0,0.02-0.01,0.05-0.01,0.09
		c0.12,0.08,0.18,0.16,0.17,0.23c0,0.01-0.03,0.13-0.09,0.35c-0.01,0.02-0.01,0.04-0.02,0.05c-0.02,0.11-0.03,0.22-0.04,0.33
		c0,0.04,0,0.08-0.01,0.1c0,0.01-0.01,0.02-0.01,0.04l-0.03,0.1l-0.02,0.14c-0.07,0.09-0.1,0.14-0.1,0.15l-0.04,0.31l-0.01,0.1
		l-0.05,0.35l-0.03,0.39l-0.02,0.12l-0.03,0.27l-0.07,0.29l0,0.51l-0.05,0.23c0.02,0.22,0.02,0.36,0.01,0.43
		c-0.01,0.09-0.02,0.17-0.03,0.25c0.06,0.06,0.08,0.13,0.07,0.19c0,0.02-0.01,0.05-0.01,0.08c-0.05,0.02-0.19,0.05-0.43,0.07
		C55,18,54.85,18.03,54.73,18.04l-0.07-0.07c-0.11,0.07-0.21,0.12-0.3,0.14c-0.04,0.01-0.21,0.05-0.51,0.1
		c-0.44,0.1-0.75,0.16-0.93,0.16c-0.29,0.04-0.47,0.06-0.54,0.06c-0.36,0-0.64-0.02-0.83-0.08l-0.08-0.17
		c-0.12,0.06-0.2,0.09-0.23,0.09c-0.02,0-0.04-0.02-0.05-0.07c0-0.01,0-0.05,0-0.11c0-0.02-0.02-0.05-0.05-0.09
		c-0.08,0.03-0.14,0.05-0.18,0.05c-0.05,0-0.1-0.02-0.14-0.06c-0.13-0.13-0.23-0.22-0.29-0.27c0.02-0.06,0.04-0.11,0.04-0.15
		c0.01-0.08-0.01-0.15-0.07-0.21c-0.08-0.08-0.12-0.12-0.12-0.13l0-0.11c-0.01-0.29-0.01-0.44-0.01-0.46
		c0.01-0.07,0.04-0.14,0.08-0.23c0.03-0.06,0.06-0.15,0.08-0.28l0.13-0.18c0.21-0.38,0.34-0.58,0.38-0.61
		C51.09,15.32,51.16,15.27,51.26,15.21z M51.25,17.12c0.07,0.05,0.11,0.08,0.12,0.11l0.03,0.13c0.08,0.14,0.13,0.23,0.15,0.26
		c0.02,0.04,0.09,0.1,0.19,0.21l0.12,0.15L52,18.06c0.11,0.1,0.17,0.15,0.19,0.15c0.07,0,0.14-0.1,0.22-0.3
		c0.13,0.08,0.24,0.12,0.35,0.12l0.51-0.02h0.24l0.54-0.12c0.21-0.04,0.33-0.07,0.38-0.11c0.12-0.14,0.21-0.24,0.29-0.31
		c-0.02-0.06-0.03-0.1-0.02-0.12l0.06-0.16l0.08-0.46l0.07-0.38c0-0.11,0-0.2,0-0.28l0.21-0.08c-0.01-0.07-0.01-0.12-0.01-0.16
		c0-0.03,0.01-0.07,0.03-0.12l-0.12-0.04l0.41-0.29L55.14,15l0.03-0.12c0-0.01-0.01-0.03-0.03-0.07l0.04-0.2
		c-0.06-0.03-0.1-0.04-0.13-0.04c-0.02,0-0.08,0.02-0.19,0.06c0,0-0.03,0.01-0.07,0.01c-0.12,0-0.2-0.02-0.24-0.06l-0.17-0.19
		l-0.38-0.12l-0.2-0.15c-0.2,0.2-0.3,0.31-0.31,0.31h-0.02h-0.04c-0.06,0-0.17,0.03-0.31,0.09l-0.16-0.01
		c-0.09,0-0.22,0.07-0.37,0.22l-0.19-0.03c-0.08,0.08-0.13,0.12-0.16,0.14l-0.21,0.11c-0.18,0.13-0.27,0.25-0.28,0.36
		c-0.13,0.08-0.24,0.17-0.32,0.27l-0.2,0.24c-0.03,0.05-0.05,0.15-0.08,0.29c-0.01,0.06-0.01,0.13,0,0.23l0,0.13l0.03,0.15
		l0.03,0.15c0.05,0.12,0.08,0.2,0.07,0.23C51.27,17.04,51.26,17.08,51.25,17.12z"/>
	<path class="st0" d="M60.53,17.15c0.06-0.01,0.11-0.02,0.14-0.03l0.02-0.1l-0.08-0.08c0.01-0.09,0.01-0.18,0.02-0.29
		c0-0.02,0-0.05,0.01-0.07c0.01-0.07,0.07-0.16,0.17-0.26l-0.01-0.02c0-0.07-0.01-0.12-0.04-0.16c-0.02-0.03-0.03-0.07-0.03-0.14
		c-0.01-0.12,0-0.21,0.01-0.28l0.12-0.46L60.89,15l0.03-0.14l0.1-0.09c-0.08-0.03-0.12-0.05-0.11-0.06c0.08-0.3,0.11-0.45,0.12-0.45
		c0.01-0.05,0.02-0.19,0.03-0.39l0.03-0.02l0.03-0.29c0.05-0.03,0.11-0.05,0.17-0.06c0.03-0.01,0.07-0.02,0.11-0.05
		c0-0.06-0.03-0.12-0.08-0.16c0.01-0.04,0.02-0.06,0.03-0.08c0.01-0.04,0-0.1-0.02-0.17l-0.13,0.08c-0.04-0.13-0.05-0.24-0.03-0.31
		c0-0.03,0.02-0.08,0.06-0.17l0.05-0.33l0.03-0.17l0-0.12l0.06-0.25c0.01-0.36,0.01-0.56,0.02-0.6c0.01-0.05,0.04-0.11,0.08-0.17
		c0.02-0.03,0.04-0.08,0.05-0.15c0.05-0.03,0.07-0.07,0.08-0.1l0-0.01l0-0.02l0.05-0.15l-0.17,0.02c0.01-0.08,0.02-0.18,0.01-0.28
		l0-0.16c0-0.22,0.01-0.39,0.03-0.52c0.01-0.08,0.04-0.17,0.08-0.27c-0.04,0.01-0.13,0.02-0.26,0.02L61,9.44
		c-0.01,0-0.03-0.01-0.07-0.02c0.09-0.16,0.13-0.23,0.14-0.23c0.09-0.05,0.16-0.09,0.2-0.12l0-0.03c0.08-0.02,0.13-0.03,0.16-0.04
		c0.1-0.03,0.17-0.04,0.19-0.04c0.01,0,0.06,0.01,0.16,0.03c0.03,0.01,0.06,0.01,0.09,0.01c0.05,0,0.18-0.04,0.39-0.13
		c0.02,0,0.1-0.01,0.26-0.01c0.03,0,0.17-0.02,0.41-0.05c0.02,0,0.03-0.01,0.04-0.01c0.05,0,0.14,0.02,0.26,0.05
		c0.06,0.02,0.12,0.03,0.17,0.03c0.03,0,0.11-0.01,0.23-0.03c0.04,0.1,0.07,0.15,0.11,0.16c0.03,0.01,0.1,0.01,0.2,0.01L64,8.97
		c0.1-0.02,0.19-0.06,0.28-0.11c0.19,0.02,0.36,0.04,0.52,0.04c0.2,0.01,0.43,0.04,0.69,0.09h0.22l0.36,0.04
		c0.09,0,0.14,0.01,0.16,0.01c0.04,0.01,0.09,0.05,0.14,0.11c0.08-0.01,0.13-0.02,0.17-0.02c0.08,0,0.31,0.08,0.7,0.24
		c0.18,0.06,0.28,0.1,0.3,0.13c0.06,0.09,0.08,0.21,0.05,0.36c-0.03,0.18-0.18,0.43-0.44,0.73l-0.21,0.26
		c-0.25,0.19-0.42,0.33-0.5,0.42h-0.25l-0.03,0.02l-0.03,0.18c-0.09,0.05-0.15,0.08-0.17,0.09c-0.22,0.12-0.41,0.2-0.56,0.25
		l-0.23,0.1c-0.16,0.03-0.25,0.05-0.29,0.06c-0.03,0.02-0.08,0.04-0.12,0.08c0.07,0.04,0.13,0.06,0.17,0.07
		c0.01,0,0.14,0.01,0.39,0.03c0.11,0.01,0.24,0.04,0.38,0.09c0.21,0.07,0.36,0.12,0.47,0.15c0.08,0.02,0.16,0.05,0.24,0.09
		c-0.03,0.06-0.04,0.12-0.05,0.16c-0.01,0.06,0.03,0.11,0.13,0.16c0.04-0.04,0.1-0.13,0.19-0.28c0.09,0,0.18,0.03,0.28,0.06
		c0.17,0.07,0.29,0.12,0.35,0.15c0.04,0.01,0.07,0.06,0.08,0.16L67.52,13l0.01,0.06l0.09-0.04l0.05,0.06
		c0.06-0.05,0.11-0.08,0.16-0.08c0.09,0,0.21,0.05,0.36,0.16c0.27,0.2,0.47,0.35,0.58,0.44c0.05,0.05,0.12,0.13,0.19,0.24
		c-0.02,0.03-0.03,0.06-0.04,0.08c0,0.03,0,0.06,0.03,0.11c0.05-0.05,0.1-0.07,0.13-0.07c0.02,0,0.16,0.12,0.44,0.35l0.06,0.11
		c0.07,0.04,0.12,0.07,0.14,0.09c0.01,0.01,0.05,0.08,0.12,0.21c0.09,0.14,0.15,0.25,0.18,0.33c-0.11,0.08-0.17,0.16-0.19,0.23
		c0,0.02-0.01,0.04-0.01,0.08l0.2-0.03c0.06,0.11,0.1,0.2,0.12,0.29c0.01,0.05,0.03,0.2,0.04,0.44c0.05,0.19,0.07,0.32,0.06,0.4
		l0,0.01L70.2,16.7l-0.04,0.23c-0.02,0.08-0.11,0.19-0.27,0.33c0,0.03,0.02,0.06,0.07,0.09c-0.01,0.05-0.02,0.09-0.03,0.12
		c0,0.02,0,0.04,0,0.06c0,0.06-0.01,0.1-0.01,0.12c0,0.02-0.16,0.2-0.46,0.54l-0.15,0.09l-0.16,0.12c-0.11,0.07-0.18,0.11-0.2,0.12
		c-0.01,0.02-0.06,0.08-0.14,0.18c-0.13,0.14-0.35,0.27-0.68,0.39l-0.06-0.07c-0.12,0.01-0.2,0.03-0.25,0.05
		c-0.05,0.02-0.12,0.08-0.2,0.18c0.08,0.01,0.12,0.04,0.11,0.1c0,0.02-0.02,0.05-0.05,0.08c-0.04,0.04-0.2,0.09-0.48,0.14
		c-0.08,0.02-0.28,0.09-0.57,0.21c-0.06,0.02-0.12,0.04-0.18,0.06c-0.17,0.06-0.27,0.1-0.3,0.11C66.1,19.99,66.06,20,66.04,20
		c-0.02,0-0.06-0.02-0.1-0.05L65.75,20l-0.07,0.09c-0.08,0.02-0.13,0.03-0.16,0.03c-0.12,0.02-0.2,0.04-0.25,0.06l-0.17,0.09
		c-0.14-0.04-0.22-0.06-0.24-0.06c-0.02,0-0.07,0.03-0.14,0.09c-0.02,0.02-0.07,0.04-0.14,0.05c-0.17,0.03-0.3,0.07-0.4,0.12
		l-0.12-0.13h-0.04c-0.05,0-0.09-0.01-0.14-0.03l-0.15,0.16l-1.15,0.04l-0.24-0.06l0.07-0.18l-0.16-0.04
		c-0.05,0.05-0.12,0.09-0.2,0.11c-0.13,0.04-0.21,0.06-0.23,0.06c0,0-0.14-0.03-0.42-0.1l-0.09-0.05l-0.2,0.01
		c-0.09-0.04-0.17-0.06-0.25-0.06c-0.05,0-0.15-0.01-0.31-0.02l-0.16,0.02l-0.23-0.02l-0.53-0.02l-0.03-0.01
		c-0.18,0.02-0.29,0.03-0.33,0.03c-0.2,0-0.3-0.04-0.28-0.13c0-0.02,0.01-0.03,0.04-0.05c0.09-0.07,0.17-0.12,0.25-0.15l0.48-0.18
		c0.04-0.02,0.09-0.06,0.14-0.12c0.04-0.06,0.07-0.1,0.07-0.13l0.02-0.16l0.54-0.15l-0.41-0.12c-0.06-0.02-0.08-0.06-0.07-0.14
		c0-0.02,0.04-0.08,0.11-0.17l0.06-0.33l0.02-0.09c0.01-0.04-0.01-0.12-0.05-0.26l0.6-0.24l-0.52-0.18
		c0.06-0.05,0.09-0.09,0.09-0.09c0.01-0.01,0.03-0.06,0.05-0.13C60.47,17.29,60.49,17.23,60.53,17.15z M60.91,18.01l0.02,0.19
		l0.19-0.03c0.03,0.11,0.03,0.21,0.02,0.29l0,0.03c-0.01,0.05-0.02,0.1-0.04,0.16c-0.02,0.06-0.03,0.09-0.03,0.09
		c0,0.29,0,0.44,0,0.46c-0.01,0.08-0.08,0.17-0.19,0.26c-0.04-0.01-0.07-0.02-0.1-0.02c-0.02,0-0.05,0.02-0.09,0.06
		c0.08,0.06,0.18,0.1,0.3,0.12c0.1,0.01,0.19,0.04,0.27,0.09l0,0.12c0.07-0.01,0.13-0.05,0.19-0.11c0.12,0.06,0.26,0.11,0.42,0.14
		l0.18,0.08l0.18,0.02c0.46,0.07,0.83,0.11,1.1,0.11c0.23,0,0.55-0.04,0.98-0.13l0.1,0.09c0.06-0.06,0.1-0.1,0.12-0.1l0.26-0.04
		c0.04,0,0.12-0.05,0.22-0.13c0.15,0,0.24-0.01,0.28-0.02l0.34-0.08c0.18-0.04,0.34-0.09,0.48-0.15c0.08-0.04,0.15-0.06,0.19-0.06
		c0.02,0,0.05,0.01,0.09,0.02c0.04-0.04,0.1-0.08,0.17-0.1c0.48-0.19,0.82-0.37,1.03-0.54c0.04-0.03,0.23-0.13,0.57-0.29
		c0.02-0.01,0.07-0.08,0.16-0.19c0.11-0.11,0.18-0.18,0.21-0.21c0.05-0.05,0.15-0.1,0.31-0.15l0.03-0.12
		c0.37-0.06,0.56-0.1,0.56-0.13c0-0.03-0.17-0.06-0.54-0.1c0.08-0.11,0.13-0.19,0.16-0.23c0.01-0.02,0.05-0.12,0.13-0.32
		c0.04-0.07,0.06-0.12,0.07-0.18l-0.02-0.02l0.12-0.08c-0.03-0.07-0.04-0.11-0.04-0.13l0.05-0.29l-0.08-0.21l0.04-0.17
		c0.02-0.12-0.06-0.33-0.25-0.64c-0.07-0.12-0.23-0.33-0.46-0.62c0.01-0.04,0.03-0.08,0.03-0.11c0-0.03,0-0.06-0.03-0.09
		c-0.03-0.04-0.06-0.05-0.07-0.05h-0.06c-0.07-0.03-0.14-0.07-0.21-0.11c-0.13-0.08-0.21-0.13-0.24-0.15
		c-0.02-0.02-0.04-0.05-0.07-0.12c0,0-0.02-0.01-0.04-0.03c-0.03-0.02-0.06-0.04-0.09-0.07c-0.07-0.06-0.14-0.1-0.22-0.12
		l-0.11-0.08c-0.06-0.03-0.1-0.06-0.1-0.07c-0.01-0.01-0.03-0.08-0.06-0.21c-0.01-0.02-0.02-0.02-0.04-0.02
		c-0.01,0-0.08,0.03-0.22,0.08c-0.01,0-0.02,0.01-0.03,0.01c-0.05,0-0.1-0.02-0.16-0.05c-0.07-0.05-0.15-0.1-0.26-0.13l-0.11-0.06
		l-0.5-0.16l-0.33-0.19c-0.1-0.04-0.18-0.09-0.23-0.14c-0.14,0.06-0.23,0.09-0.25,0.09l-0.31-0.11l-0.2-0.08l-0.23-0.04l-0.19-0.05
		l-0.11-0.02l-0.21-0.05c-0.33-0.03-0.5-0.05-0.51-0.05l-0.31,0.01l-0.48-0.02c-0.18,0-0.37,0.08-0.58,0.25c0,0.09,0,0.24,0,0.43
		c0,0.02,0,0.03,0,0.05c-0.01,0.04-0.04,0.12-0.09,0.22h-0.01c-0.09,0-0.16,0.01-0.2,0.04c0,0.14,0,0.22,0,0.24
		c0,0.02,0.04,0.07,0.1,0.15c-0.03,0.06-0.05,0.12-0.06,0.19l0,0.01c-0.01,0.08-0.02,0.14-0.03,0.16c0,0.03-0.01,0.04-0.01,0.05
		c-0.01,0.04-0.01,0.15-0.01,0.32c0,0.07-0.01,0.13-0.02,0.19c-0.01,0.05-0.03,0.12-0.05,0.22l-0.09,0.35l-0.03,0.12l0.02,0.22
		l-0.04,0.29c0,0.16-0.01,0.27-0.02,0.32c-0.01,0.07-0.05,0.2-0.12,0.38h-0.09l-0.02,0.29c0.09,0.08,0.12,0.16,0.11,0.23l-0.07,0.39
		c-0.01,0.03-0.01,0.09-0.02,0.17l-0.04,0.04h-0.03l-0.03,0.02l-0.01,0.04c-0.06,0-0.11-0.01-0.15-0.01
		C60.99,17.95,60.94,17.97,60.91,18.01z M62.15,10.59h0.02l0.04-0.02c0.03,0.08,0.06,0.14,0.12,0.2l-0.17,0.98l-0.06,0.16
		c0.09,0.02,0.16,0.04,0.18,0.05c0.03,0.01,0.05,0.01,0.07,0.01l0.14-0.01h0.01c0,0,0.07,0.01,0.2,0.03
		c0.16,0.01,0.33,0.02,0.5,0.04c-0.03,0.06-0.04,0.11-0.05,0.15c-0.02,0.12,0,0.19,0.05,0.19c0.04,0,0.14-0.1,0.32-0.29l0.02-0.09
		l1.1-0.22c0.05-0.01,0.14-0.06,0.28-0.14l0.26-0.08l0.23-0.14c0.32-0.17,0.54-0.3,0.66-0.39c0.17-0.14,0.27-0.23,0.28-0.26
		l0.16-0.29c0.09-0.16,0.14-0.26,0.14-0.27c0.01-0.05-0.02-0.1-0.08-0.16l0.11-0.18c-0.03-0.02-0.06-0.02-0.07-0.02
		c-0.01,0-0.07,0.02-0.2,0.07l-0.21-0.28c-0.04,0-0.07,0.01-0.09,0.01c-0.05,0-0.12-0.01-0.22-0.04c-0.03-0.06-0.05-0.1-0.05-0.1
		l-0.57-0.11l-0.2-0.07l-0.19,0.03l-0.11-0.01H64.6l-0.21-0.05l-0.23-0.01l-0.2-0.01l-0.51,0.07L63,9.36
		C62.88,9.39,62.77,9.4,62.7,9.4c-0.02,0-0.07,0-0.14,0c-0.05,0.09-0.08,0.14-0.09,0.15l-0.16,0.68c-0.01,0.06-0.08,0.13-0.19,0.21
		l0.01,0.02C62.14,10.49,62.15,10.54,62.15,10.59z"/>
	<path class="st0" d="M71.85,14.39c0.01-0.05,0.08-0.13,0.22-0.22c0.29-0.2,0.54-0.33,0.74-0.39l0.14,0.18
		c-0.06,0.1-0.11,0.23-0.17,0.41c-0.05,0.14-0.08,0.23-0.08,0.26l-0.04,0.22l-0.12,0.14c-0.02,0.1,0.01,0.19,0.08,0.28
		c-0.03,0.04-0.05,0.07-0.05,0.08l-0.04,0.29l-0.02,0.06c-0.01,0.03-0.02,0.07-0.03,0.13l-0.23,1.12c-0.01,0.06,0,0.19,0,0.4
		l-0.03,0.25c0,0.12,0,0.19,0,0.2c-0.01,0.08-0.06,0.16-0.15,0.22c-0.02,0.02-0.11,0.07-0.25,0.15c-0.22,0.15-0.35,0.23-0.38,0.25
		c-0.04,0.02-0.08,0.02-0.11,0.02c-0.05,0-0.09-0.02-0.13-0.07c0.03-0.1,0.05-0.16,0.06-0.19c0.01-0.05,0.05-0.13,0.11-0.26
		l0.06-0.29l0.14-0.57l0.01-0.11c0.01-0.06,0.05-0.09,0.11-0.09c0.02,0,0.04,0,0.06,0.01c0.03-0.06,0.05-0.1,0.05-0.13
		c0.01-0.03,0-0.09,0-0.18c0-0.04-0.01-0.09-0.01-0.16l-0.09-0.08c0.03-0.09,0.04-0.15,0.05-0.19c0-0.02,0.01-0.05,0.01-0.09
		c0.01-0.03,0.01-0.06,0.01-0.08c0.01-0.05,0.04-0.11,0.09-0.17c-0.03-0.05-0.04-0.1-0.03-0.15l0.01-0.05l0.01-0.04l0.01-0.13
		c0.26-0.05,0.4-0.09,0.4-0.12c0,0,0-0.01-0.01-0.02c-0.05-0.05-0.12-0.08-0.2-0.08c-0.06,0-0.14,0-0.23,0.01
		c0.02-0.06,0.04-0.1,0.04-0.12c0-0.01,0.02-0.2,0.06-0.58C71.94,14.47,71.91,14.42,71.85,14.39z M72.37,12.02L72.37,12.02
		c0.02-0.14,0.14-0.29,0.38-0.45c0.05-0.04,0.11-0.09,0.18-0.15c0,0,0.05-0.03,0.13-0.09c0.18-0.21,0.29-0.33,0.33-0.36
		c0.07-0.04,0.12-0.06,0.16-0.06c0.02,0,0.05,0.03,0.12,0.09c0.06,0.05,0.09,0.12,0.08,0.2c-0.01,0.06-0.06,0.12-0.13,0.16
		c-0.2,0.13-0.4,0.27-0.59,0.42l-0.18,0.11l-0.23,0.14c-0.12,0.06-0.19,0.09-0.2,0.09C72.37,12.11,72.36,12.08,72.37,12.02z"/>
	<path class="st0" d="M74.39,14.39c0.04-0.07,0.08-0.13,0.15-0.19c0.05-0.04,0.16-0.1,0.34-0.18c0.19-0.1,0.29-0.16,0.31-0.16
		c0.07,0,0.12,0.02,0.15,0.08l0.01,0.1l0.01,0.18c-0.02,0.04-0.03,0.08-0.04,0.1c-0.01,0.04,0.01,0.08,0.04,0.12
		c0.08-0.02,0.2-0.07,0.34-0.15l0.26-0.08l0.28-0.16l0.17-0.06c0.09-0.04,0.14-0.06,0.15-0.06l0.12,0.02c0.01,0,0.01,0,0.02,0
		c0.02,0,0.16-0.04,0.42-0.12c0.03-0.01,0.09-0.01,0.18-0.01c0.07,0,0.11,0.01,0.14,0.03c0,0,0.04,0.04,0.1,0.12
		c0.04,0.01,0.07,0.02,0.08,0.02s0.07-0.03,0.18-0.08c0.01,0,0.02-0.01,0.03-0.01c0.05,0,0.1,0.03,0.16,0.09
		c0.05,0.05,0.08,0.14,0.09,0.25c-0.07,0.06-0.2,0.15-0.4,0.27c-0.1,0.11-0.18,0.16-0.22,0.16c-0.06,0-0.13-0.06-0.21-0.19
		c-0.07,0.01-0.13,0.01-0.18,0.01c-0.05,0-0.13-0.02-0.24-0.07c-0.09-0.04-0.18-0.06-0.27-0.07c-0.05,0.08-0.12,0.12-0.22,0.13
		c-0.11,0.01-0.18,0.02-0.21,0.02l-0.25,0.07c-0.02,0-0.04-0.01-0.09-0.04c-0.09,0.07-0.25,0.18-0.47,0.32
		c-0.14,0.09-0.23,0.25-0.27,0.48l0,0.02c-0.01,0.05-0.02,0.11-0.03,0.19c-0.01,0.07-0.02,0.13-0.03,0.18
		c-0.01,0.04-0.06,0.11-0.17,0.19c0.05,0.07,0.08,0.13,0.07,0.18c0,0.03-0.01,0.06-0.03,0.1l0.08,0.02l-0.01,0.18l-0.16,1.05
		l-0.03,0.06l-0.17,0.08c-0.23,0.04-0.34,0.07-0.34,0.09c0,0.02,0.12,0.04,0.36,0.08l0.1-0.02c0.02,0.13,0.02,0.22,0.01,0.26
		c-0.02,0.09-0.07,0.16-0.17,0.21c-0.04,0.02-0.14,0.04-0.31,0.06c-0.03,0.01-0.12,0.06-0.28,0.15c-0.03,0.02-0.06,0.02-0.09,0.02
		c-0.09,0-0.13-0.04-0.12-0.12c0-0.02,0.05-0.13,0.15-0.33c0.01-0.02,0.02-0.05,0.02-0.07c0-0.01,0.01-0.1,0.02-0.26
		c0-0.01,0.02-0.04,0.04-0.1l0.15-0.04c0.01-0.03,0.02-0.07,0.02-0.09c0.01-0.05-0.01-0.11-0.06-0.18c0.01-0.05,0.02-0.1,0.03-0.15
		c0.01-0.03,0.01-0.13,0.01-0.28c0.03-0.13,0.06-0.24,0.08-0.33c0.15-0.05,0.24-0.11,0.25-0.19c0-0.02,0-0.06,0-0.09
		c-0.05,0.01-0.09,0.02-0.12,0.02c-0.03,0-0.06-0.02-0.09-0.05c0.01-0.08,0.03-0.16,0.04-0.26l0.02-0.12l0.03-0.16l0.01-0.05
		c0.01-0.03,0.01-0.07,0.01-0.11c0.01-0.04,0.01-0.07,0.02-0.09c0.01-0.06,0.05-0.15,0.12-0.25c-0.04-0.04-0.07-0.08-0.07-0.11
		c0-0.01,0.01-0.14,0.04-0.38C74.49,14.57,74.46,14.49,74.39,14.39z"/>
	<path class="st0" d="M78.77,15.21l0.2,0.04l0.05-0.04l0-0.3c0.09-0.05,0.14-0.08,0.17-0.09c0.02-0.01,0.15-0.12,0.39-0.33
		l0.18-0.11c0.09-0.07,0.16-0.1,0.2-0.1c0.04,0,0.1,0.01,0.2,0.03l0.07,0.06c0.08-0.06,0.18-0.1,0.29-0.13l0.03-0.15
		c0.04-0.03,0.13-0.07,0.29-0.12l0.29-0.09l0.2-0.02c0.1-0.03,0.16-0.05,0.17-0.05c0.03,0,0.07,0.02,0.13,0.06
		c0.1,0.08,0.17,0.13,0.2,0.15l0.14-0.15c0.11,0.04,0.19,0.06,0.22,0.06c0.25,0.04,0.38,0.07,0.4,0.08l0.12,0.09
		c0.01,0.01,0.03,0.02,0.06,0.02c0.06,0,0.14-0.03,0.23-0.1c-0.04-0.07-0.06-0.11-0.07-0.13l0.03-0.36l-0.01-0.12
		c0.27-0.16,0.4-0.26,0.41-0.28c0-0.03-0.05-0.12-0.17-0.26c-0.07-0.1-0.09-0.27-0.05-0.5l0.16-0.08c-0.03-0.05-0.04-0.13-0.03-0.22
		c-0.03-0.18-0.04-0.3-0.03-0.37l0.01-0.16c0.02-0.12,0.05-0.27,0.09-0.45c0.01-0.06,0.04-0.16,0.1-0.28l-0.01-0.33
		c0-0.02,0.02-0.06,0.05-0.11l0.12-0.06c-0.02-0.07-0.04-0.1-0.05-0.09c-0.01-0.02-0.06-0.03-0.15-0.03l-0.03-0.02l-0.02-0.01
		l0.53-0.31l-0.1-0.15l0.01-0.28c0-0.07-0.05-0.12-0.17-0.16c-0.18-0.07-0.26-0.11-0.26-0.14c0-0.02,0.03-0.06,0.08-0.09
		c0.04-0.03,0.19-0.07,0.45-0.12c0.09-0.1,0.29-0.18,0.6-0.22c0.02,0.06,0.02,0.14,0,0.27l-0.01,0.11l0,0.01
		c0,0-0.03,0.09-0.09,0.26l-0.03,0.17l-0.03,0.1l-0.04,0.25l-0.03,0.17l-0.04,0.25c0,0.03-0.02,0.07-0.04,0.12
		c-0.05,0.11-0.08,0.17-0.08,0.18l-0.05,0.43l-0.16,0.22c0.01,0.13,0.04,0.24,0.09,0.35l-0.09,0.22l-0.01,0.17
		c-0.04,0.09-0.07,0.14-0.07,0.16c-0.01,0.07-0.01,0.15,0,0.26c0,0.04,0,0.08-0.01,0.11c0,0.03-0.02,0.06-0.05,0.1l-0.13,0.02
		c-0.06,0.09-0.09,0.16-0.1,0.2c0,0.02-0.01,0.05-0.01,0.09c0.12,0.08,0.18,0.16,0.17,0.23c0,0.01-0.03,0.13-0.09,0.35
		c-0.01,0.02-0.01,0.04-0.02,0.05c-0.02,0.11-0.03,0.22-0.04,0.33c0,0.04,0,0.08-0.01,0.1c0,0.01-0.01,0.02-0.01,0.04l-0.03,0.1
		l-0.02,0.14c-0.07,0.09-0.1,0.14-0.1,0.15l-0.04,0.31l-0.01,0.1l-0.05,0.35l-0.03,0.39l-0.02,0.12l-0.03,0.27l-0.07,0.29l0,0.51
		l-0.05,0.23c0.02,0.22,0.02,0.36,0.01,0.43c-0.01,0.09-0.02,0.17-0.03,0.25c0.06,0.06,0.08,0.13,0.07,0.19
		c0,0.02-0.01,0.05-0.01,0.08c-0.05,0.02-0.19,0.05-0.43,0.07c-0.18,0.04-0.33,0.06-0.45,0.08l-0.07-0.07
		c-0.11,0.07-0.21,0.12-0.3,0.14c-0.04,0.01-0.21,0.05-0.51,0.1c-0.44,0.1-0.75,0.16-0.93,0.16c-0.29,0.04-0.47,0.06-0.54,0.06
		c-0.36,0-0.64-0.02-0.83-0.08l-0.08-0.17c-0.12,0.06-0.2,0.09-0.23,0.09c-0.02,0-0.04-0.02-0.05-0.07c0-0.01,0-0.05,0-0.11
		c0-0.02-0.02-0.05-0.05-0.09c-0.08,0.03-0.14,0.05-0.18,0.05c-0.05,0-0.1-0.02-0.14-0.06c-0.13-0.13-0.23-0.22-0.29-0.27
		c0.02-0.06,0.04-0.11,0.04-0.15c0.01-0.08-0.01-0.15-0.07-0.21c-0.08-0.08-0.12-0.12-0.12-0.13l0-0.11
		c-0.01-0.29-0.01-0.44-0.01-0.46c0.01-0.07,0.04-0.14,0.08-0.23c0.03-0.06,0.06-0.15,0.08-0.28l0.13-0.18
		c0.21-0.38,0.34-0.58,0.38-0.61C78.61,15.32,78.68,15.27,78.77,15.21z M78.76,17.12c0.07,0.05,0.11,0.08,0.12,0.11l0.03,0.13
		c0.08,0.14,0.13,0.23,0.15,0.26c0.02,0.04,0.09,0.1,0.19,0.21l0.12,0.15l0.14,0.08c0.11,0.1,0.17,0.15,0.19,0.15
		c0.07,0,0.14-0.1,0.22-0.3c0.13,0.08,0.24,0.12,0.35,0.12l0.51-0.02h0.24l0.54-0.12c0.21-0.04,0.33-0.07,0.38-0.11
		c0.12-0.14,0.21-0.24,0.29-0.31c-0.02-0.06-0.03-0.1-0.02-0.12l0.06-0.16l0.08-0.46l0.07-0.38c0-0.11,0-0.2,0-0.28l0.21-0.08
		c-0.01-0.07-0.01-0.12-0.01-0.16c0-0.03,0.01-0.07,0.03-0.12l-0.12-0.04l0.41-0.29L82.66,15l0.03-0.12c0-0.01-0.01-0.03-0.03-0.07
		l0.04-0.2c-0.06-0.03-0.1-0.04-0.13-0.04c-0.02,0-0.08,0.02-0.19,0.06c0,0-0.03,0.01-0.07,0.01c-0.12,0-0.2-0.02-0.24-0.06
		l-0.17-0.19l-0.38-0.12l-0.2-0.15c-0.2,0.2-0.3,0.31-0.31,0.31h-0.02h-0.04c-0.06,0-0.17,0.03-0.31,0.09l-0.16-0.01
		c-0.09,0-0.22,0.07-0.37,0.22l-0.19-0.03c-0.08,0.08-0.13,0.12-0.16,0.14l-0.21,0.11c-0.18,0.13-0.27,0.25-0.28,0.36
		c-0.13,0.08-0.24,0.17-0.32,0.27l-0.2,0.24c-0.03,0.05-0.05,0.15-0.08,0.29c-0.01,0.06-0.01,0.13,0,0.23l0,0.13l0.03,0.15
		l0.03,0.15c0.05,0.12,0.08,0.2,0.07,0.23C78.79,17.04,78.78,17.08,78.76,17.12z"/>
	<path class="st0" d="M85.51,11.48c0.16,0.07,0.26,0.12,0.3,0.18c0.04,0.05,0.07,0.13,0.1,0.26h0.26c0.06,0.16,0.12,0.26,0.17,0.3
		c0.02,0.01,0.14,0.05,0.37,0.11c0.03,0,0.05,0.04,0.08,0.1c0.04,0.09,0.07,0.17,0.11,0.23l0.23,0.02l0.09,0.18h0.22
		c0.02,0.09,0.05,0.16,0.08,0.19c0.01,0.01,0.06,0.04,0.16,0.1c0.02,0.01,0.05,0.05,0.09,0.14c0.01,0.02,0.04,0.07,0.08,0.13
		l0.33-0.06c0.01,0.12,0.04,0.21,0.09,0.24c0.03,0.02,0.15,0.04,0.36,0.07c0.14,0.03,0.19,0.14,0.16,0.33l0.3,0.01
		c0.05,0.05,0.09,0.11,0.14,0.19c0.04,0.07,0.08,0.13,0.14,0.19l0.27,0.02l0.05,0.22c0.11,0.02,0.22,0.06,0.34,0.12
		c0.19,0.11,0.29,0.17,0.3,0.18c0.01,0,0.04,0.04,0.1,0.12c0.1,0.14,0.2,0.24,0.3,0.3l-0.01,0.05c-0.1,0.03-0.22,0.05-0.36,0.05
		c-0.13,0.02-0.23,0.12-0.3,0.3c-0.12,0.02-0.33,0.09-0.61,0.19l-0.1,0.24l-0.2,0.05c-0.07,0.02-0.11,0.03-0.12,0.04l-0.31,0.21
		c-0.2,0.09-0.31,0.14-0.33,0.16c-0.04,0.03-0.08,0.08-0.13,0.15l-0.27-0.04c-0.07,0.06-0.12,0.11-0.14,0.15
		c-0.04,0.07-0.07,0.13-0.1,0.2h-0.25c-0.05,0.1-0.08,0.16-0.09,0.18c-0.02,0.02-0.09,0.06-0.23,0.12l-0.54,0.3l-0.18,0.05
		l-0.22,0.14c-0.16,0.09-0.25,0.15-0.28,0.18c-0.04,0.04-0.09,0.1-0.16,0.19l-0.28-0.04l-0.17,0.36l-0.4-0.04
		c-0.12,0.18-0.2,0.28-0.23,0.3c-0.01,0.02-0.07,0.04-0.18,0.09c-0.05,0.02-0.14,0.06-0.27,0.12c0.05-0.11,0.08-0.19,0.09-0.24
		c0.01-0.03,0.02-0.12,0.04-0.24c0-0.05,0.01-0.1,0.02-0.16c0.02-0.12,0.05-0.21,0.1-0.25c0.04-0.04,0.09-0.06,0.16-0.09
		c0.22-0.08,0.35-0.13,0.39-0.15c0.05-0.04,0.17-0.15,0.36-0.33l0.28,0.02c0.08-0.1,0.13-0.15,0.16-0.16
		c0.02-0.02,0.08-0.03,0.19-0.04l0.13-0.2c0.11-0.01,0.19-0.03,0.23-0.06c0.04-0.03,0.08-0.08,0.12-0.16L86.7,17
		c0.09-0.09,0.18-0.15,0.27-0.2c0.07-0.03,0.14-0.1,0.22-0.21h0.23c0.06-0.16,0.11-0.25,0.17-0.27c0.04-0.02,0.16-0.03,0.38-0.04
		c0.02,0,0.09-0.04,0.22-0.11c0.1-0.05,0.16-0.08,0.16-0.09l0.19-0.22c0.03-0.03,0.06-0.06,0.1-0.08c0.12-0.05,0.19-0.08,0.21-0.1
		s0.06-0.06,0.13-0.13l0.22,0.02l0.41-0.36l0-0.01c-0.08-0.03-0.2-0.06-0.35-0.09c-0.09-0.04-0.17-0.13-0.22-0.29l-0.24-0.02
		c-0.04-0.05-0.06-0.09-0.08-0.11c-0.08-0.13-0.14-0.19-0.18-0.19c-0.16,0-0.28-0.02-0.37-0.05l-0.01-0.39l-0.5,0.08
		c-0.08-0.2-0.14-0.35-0.2-0.45l-0.26,0.04l-0.04-0.23l-0.27,0.04c-0.07-0.09-0.19-0.2-0.37-0.33c-0.03-0.03-0.07-0.1-0.09-0.23
		c-0.1-0.02-0.17-0.03-0.2-0.04c-0.1-0.01-0.16-0.04-0.19-0.09c-0.02-0.03-0.04-0.09-0.06-0.18c-0.15-0.01-0.27-0.03-0.36-0.06
		c-0.01-0.08-0.01-0.13-0.01-0.16c0-0.06-0.02-0.1-0.04-0.12c-0.03-0.02-0.08-0.05-0.15-0.06c-0.02-0.11-0.02-0.2-0.01-0.27
		c0-0.02,0.01-0.04,0.03-0.07c0.08-0.12,0.13-0.19,0.13-0.21s0-0.04-0.02-0.08C85.54,11.61,85.53,11.55,85.51,11.48z"/>
	<path class="st0" d="M92.39,11.48c0.16,0.07,0.26,0.12,0.3,0.18c0.04,0.05,0.07,0.13,0.1,0.26h0.26c0.06,0.16,0.12,0.26,0.17,0.3
		c0.02,0.01,0.14,0.05,0.37,0.11c0.03,0,0.05,0.04,0.08,0.1c0.04,0.09,0.07,0.17,0.11,0.23l0.23,0.02l0.09,0.18h0.22
		c0.02,0.09,0.05,0.16,0.08,0.19c0.01,0.01,0.06,0.04,0.16,0.1c0.02,0.01,0.05,0.05,0.09,0.14c0.01,0.02,0.04,0.07,0.08,0.13
		l0.33-0.06c0.01,0.12,0.04,0.21,0.09,0.24c0.03,0.02,0.15,0.04,0.36,0.07c0.14,0.03,0.19,0.14,0.16,0.33l0.3,0.01
		c0.05,0.05,0.09,0.11,0.14,0.19c0.04,0.07,0.08,0.13,0.14,0.19l0.27,0.02l0.05,0.22c0.11,0.02,0.22,0.06,0.34,0.12
		c0.19,0.11,0.29,0.17,0.3,0.18c0.01,0,0.04,0.04,0.1,0.12c0.1,0.14,0.2,0.24,0.3,0.3l-0.01,0.05c-0.1,0.03-0.22,0.05-0.36,0.05
		c-0.13,0.02-0.23,0.12-0.3,0.3c-0.12,0.02-0.33,0.09-0.61,0.19l-0.1,0.24l-0.2,0.05c-0.07,0.02-0.11,0.03-0.12,0.04l-0.31,0.21
		c-0.2,0.09-0.31,0.14-0.33,0.16c-0.04,0.03-0.08,0.08-0.13,0.15l-0.27-0.04c-0.07,0.06-0.12,0.11-0.14,0.15
		c-0.04,0.07-0.07,0.13-0.1,0.2h-0.25c-0.05,0.1-0.08,0.16-0.09,0.18c-0.02,0.02-0.09,0.06-0.23,0.12l-0.54,0.3l-0.18,0.05
		l-0.22,0.14c-0.16,0.09-0.25,0.15-0.28,0.18c-0.04,0.04-0.09,0.1-0.16,0.19l-0.28-0.04l-0.17,0.36l-0.4-0.04
		c-0.12,0.18-0.2,0.28-0.23,0.3c-0.01,0.02-0.07,0.04-0.18,0.09c-0.05,0.02-0.14,0.06-0.27,0.12c0.05-0.11,0.08-0.19,0.09-0.24
		c0.01-0.03,0.02-0.12,0.04-0.24c0-0.05,0.01-0.1,0.02-0.16c0.02-0.12,0.05-0.21,0.1-0.25c0.04-0.04,0.09-0.06,0.16-0.09
		c0.22-0.08,0.35-0.13,0.39-0.15c0.05-0.04,0.17-0.15,0.36-0.33l0.28,0.02c0.08-0.1,0.13-0.15,0.16-0.16
		c0.02-0.02,0.08-0.03,0.19-0.04L93,17.2c0.11-0.01,0.19-0.03,0.23-0.06c0.04-0.03,0.08-0.08,0.12-0.16L93.59,17
		c0.09-0.09,0.18-0.15,0.27-0.2c0.07-0.03,0.14-0.1,0.22-0.21h0.23c0.06-0.16,0.11-0.25,0.17-0.27c0.04-0.02,0.16-0.03,0.38-0.04
		c0.02,0,0.09-0.04,0.22-0.11c0.1-0.05,0.16-0.08,0.16-0.09l0.19-0.22c0.03-0.03,0.06-0.06,0.1-0.08c0.12-0.05,0.19-0.08,0.21-0.1
		s0.06-0.06,0.13-0.13l0.22,0.02l0.41-0.36l0-0.01c-0.08-0.03-0.2-0.06-0.35-0.09c-0.09-0.04-0.17-0.13-0.22-0.29L95.7,14.8
		c-0.04-0.05-0.06-0.09-0.08-0.11c-0.08-0.13-0.14-0.19-0.18-0.19c-0.16,0-0.28-0.02-0.37-0.05l-0.01-0.39l-0.5,0.08
		c-0.08-0.2-0.14-0.35-0.2-0.45l-0.26,0.04l-0.04-0.23l-0.27,0.04c-0.07-0.09-0.19-0.2-0.37-0.33c-0.03-0.03-0.07-0.1-0.09-0.23
		c-0.1-0.02-0.17-0.03-0.2-0.04c-0.1-0.01-0.16-0.04-0.19-0.09c-0.02-0.03-0.04-0.09-0.06-0.18c-0.15-0.01-0.27-0.03-0.36-0.06
		c-0.01-0.08-0.01-0.13-0.01-0.16c0-0.06-0.02-0.1-0.04-0.12c-0.03-0.02-0.08-0.05-0.15-0.06c-0.02-0.11-0.02-0.2-0.01-0.27
		c0-0.02,0.01-0.04,0.03-0.07c0.08-0.12,0.13-0.19,0.13-0.21s0-0.04-0.02-0.08C92.43,11.61,92.41,11.55,92.39,11.48z"/>
</g>
<g>
	<rect x="68.73" y="16.07" class="st1" width="7.21" height="0.21"/>
</g>
<g>
</g>
<g>
</g>
<g>
</g>
<g>
</g>
<g>
</g>
<g>
</g>
</svg>
